<svg xmlns="http://www.w3.org/2000/svg">
  <!-- Insert above -->
  <symbol id="insert-above" viewBox="0 0 25 25">
    <path d="M14.5 10.5556L10.5 10.5556M12.5 12.5L12.5 8.50001M18.5 5.50001L6.5 5.50001M18.5 19.5L6.5 19.5L6.5 15.5L18.5 15.5L18.5 19.5Z" stroke="#b0b0b0" stroke-width="2" stroke-linecap="square"/>
  </symbol>

  <!-- Insert below -->
  <symbol id="insert-below" viewBox="0 0 25 25">
    <path d="M10.5 14.5H14.5M12.5 12.5V16.5M6.5 19.5H18.5M6.5 5.5H18.5V9.5H6.5V5.5Z" stroke="#b0b0b0" stroke-width="2" stroke-linecap="square"/>
  </symbol>

  <!-- Help -->
  <symbol id="help" viewBox="0 0 32 32">
    <path d="M16 2.672c-7.361 0-13.328 5.967-13.328 13.328s5.967 13.328 13.328 13.328 13.328-5.967 13.328-13.328c0-7.361-5.967-13.328-13.328-13.328zM16 28.262c-6.761 0-12.262-5.5-12.262-12.262s5.5-12.262 12.262-12.262 12.262 5.5 12.262 12.262c0 6.761-5.5 12.262-12.262 12.262z"/>
    <path d="M15.955 9.013c-2.706 0-4.217 1.672-4.236 4.322h1.176c-0.037-1.922 0.97-3.332 3.005-3.332 1.455 0 2.668 1.026 2.668 2.519 0 0.97-0.523 1.754-1.213 2.407-1.418 1.316-1.815 1.935-1.887 3.738h1.191c0.070-1.635 0.034-1.602 1.461-3.029 0.952-0.896 1.623-1.792 1.623-3.173 0-2.164-1.717-3.452-3.787-3.452z"/>
    <path d="M16 20.799c-0.588 0-1.066 0.477-1.066 1.066 0 0.589 0.478 1.066 1.066 1.066s1.066-0.477 1.066-1.066c0-0.588-0.477-1.066-1.066-1.066z"/>
  </symbol>

  <!-- Emoji -->
  <symbol id="drag" viewBox="0 0 24 24">
    <circle cx="9.5" cy="6" r="0.5" stroke-linecap="round" stroke-linejoin="round"/>
    <circle cx="9.5" cy="10" r="0.5" stroke-linecap="round" stroke-linejoin="round"/>
    <circle cx="9.5" cy="14" r="0.5" stroke-linecap="round" stroke-linejoin="round"/>
    <circle cx="9.5" cy="18" r="0.5" stroke-linecap="round" stroke-linejoin="round"/>
    <circle cx="14.5" cy="6" r="0.5" stroke-linecap="round" stroke-linejoin="round"/>
    <circle cx="14.5" cy="10" r="0.5" stroke-linecap="round" stroke-linejoin="round"/>
    <circle cx="14.5" cy="14" r="0.5" stroke-linecap="round" stroke-linejoin="round"/>
    <circle cx="14.5" cy="18" r="0.5" stroke-linecap="round" stroke-linejoin="round"/>
  </symbol>

  <!-- Emoji -->
  <symbol id="emoji" viewBox="0 0 24 24">
    <circle cx="12" cy="12" r="10" stroke="#B0B0B0" stroke-width="2" fill="none"/>
    <path d="M8 15a4 4 0 008 0" stroke="#B0B0B0" stroke-width="2" stroke-linecap="round" stroke-linejoin="round"/>
    <circle cx="9" cy="10" r="1" fill="#B0B0B0"/>
    <circle cx="15" cy="10" r="1" fill="#B0B0B0"/>
  </symbol>

    <!-- Checked Checkbox -->
  <symbol id="checked-checkbox" viewBox="0 0 24 24">
    <path d="M4 4h16v16H4V4z" stroke="#B0B0B0" stroke-width="2" fill="none"/>
    <path d="M7 12l3 3 7-7" stroke="#B0B0B0" stroke-width="2" stroke-linecap="round" stroke-linejoin="round"/>
  </symbol>

  <!-- Unchecked Checkbox -->
  <symbol id="unchecked-checkbox" viewBox="0 0 24 24">
    <path d="M4 4h16v16H4V4z" stroke="#B0B0B0" stroke-width="2" fill="none"/>
  </symbol>

  <!-- Image -->
  <symbol id="image" viewBox="0 0 24 24">
    <rect x="4" y="4" width="16" height="16" stroke="#B0B0B0" stroke-width="2" fill="none" />
    <circle cx="9" cy="9" r="2" stroke="#B0B0B0" stroke-width="2" fill="none"/>
    <path d="M9 19l3-4 3 3 4-5" stroke="#B0B0B0" stroke-width="2" stroke-linecap="round" stroke-linejoin="round"/>
  </symbol>

  <!-- Save -->
  <symbol id="save" viewBox="0 0 32 32" xmlns="http://www.w3.org/2000/svg">
    <path d="M23.464 3.205h-20.259v25.59h25.59v-20.259l-5.331-5.331zM21.331 4.271v7.464h-10.662v-7.464h10.662zM27.729 27.729h-23.457v-23.457h5.331v8.53h12.795v-8.53h0.625l4.706 4.707v18.751z" fill="#000000"/>
    <path d="M18.153 6.404h1.066v3.199h-1.066v-3.199z" fill="#000000"/>
    <path d="M10.669 20.265h10.662v1.066h-10.662v-1.066z" fill="#000000"/>
    <path d="M10.669 23.464h10.662v1.066h-10.662v-1.066z" fill="#000000"/>
  </symbol>

  <!-- Edit -->
  <symbol id="edit" viewBox="0 0 24 24">
    <path d="M15.71 4.29a1 1 0 011.41 0l2.59 2.59a1 1 0 010 1.41l-9.29 9.29a1 1 0 01-.7.29H7a1 1 0 01-1-1v-2.41a1 1 0 01.29-.7l9.29-9.29zM4 20h16"/>
  </symbol>

  <!-- Read -->
  <symbol id="read" viewBox="0 0 24 24">
    <path d="M12 4.75c-5.33 0-9.45 2.67-11 6.25 1.55 3.58 5.67 6.25 11 6.25s9.45-2.67 11-6.25c-1.55-3.58-5.67-6.25-11-6.25zm0 10c-3.08 0-5.64-1.44-7.07-3.5C6.36 9.44 8.92 8 12 8s5.64 1.44 7.07 3.5C17.64 13.31 15.08 14.75 12 14.75z"/>
  </symbol>

  <!-- New -->
  <symbol id="new" viewBox="0 0 24 24">
    <path d="M12 5v14M5 12h14" />
  </symbol>

  <!-- Delete -->
  <symbol id="delete" viewBox="0 0 24 24">
    <path d="M4 7h16M6 7v12a2 2 0 002 2h8a2 2 0 002-2V7M9 7V5a1 1 0 011-1h4a1 1 0 011 1v2"/>
  </symbol>

  <!-- Image -->
  <!-- <symbol id="image" viewBox="0 0 24 24">
    <path d="M21 5H3a2 2 0 00-2 2v10a2 2 0 002 2h18a2 2 0 002-2V7a2 2 0 00-2-2zm-11 5a2 2 0 11-4 0 2 2 0 014 0zm-7 9l3.5-4.5 2.5 3 3.5-4.5L19 19H3z"/>
  </symbol> -->

  <!-- Burger Menu -->
  <symbol id="menu" viewBox="0 0 24 24">
    <path d="M21 5H3a2 2 0 00-2 2v10a2 2 0 002 2h18a2 2 0 002-2V7a2 2 0 00-2-2zm-11 5a2 2 0 11-4 0 2 2 0 014 0zm-7 9l3.5-4.5 2.5 3 3.5-4.5L19 19H3z"/>
  </symbol>
</svg>
